<svg xmlns="http://www.w3.org/2000/svg" xmlns:xlink="http://www.w3.org/1999/xlink" width="500" zoomAndPan="magnify" viewBox="0 0 375 374.999991" height="500" preserveAspectRatio="xMidYMid meet" version="1.2"><defs><clipPath id="0a60cbb20d"><path d="M 166 112.070312 L 176 112.070312 L 176 121 L 166 121 Z M 166 112.070312 "/></clipPath></defs><g id="5642fbff50"><path style=" stroke:none;fill-rule:nonzero;fill:#0071a8;fill-opacity:1;" d="M 129.523438 137.371094 C 144.171875 131.265625 159.183594 130.261719 171.175781 133.589844 C 157.539062 127.542969 138.578125 127.707031 120.15625 135.378906 C 90.941406 147.558594 74.171875 173.996094 82.6875 194.4375 C 88.96875 209.503906 107.242188 217.09375 128.121094 215.167969 C 102.625 209.164062 96.890625 197.933594 94.597656 192.410156 C 86.652344 173.359375 102.292969 148.710938 129.523438 137.371094 Z M 129.523438 137.371094 "/><path style=" stroke:none;fill-rule:nonzero;fill:#62c7e3;fill-opacity:1;" d="M 191.070312 152.210938 C 189.464844 148.359375 186.878906 145.109375 183.574219 142.515625 C 172.683594 133.964844 153.894531 132.527344 135.738281 140.089844 C 122.40625 145.648438 112.269531 154.871094 107.199219 164.832031 C 113.246094 157.128906 122.140625 150.3125 133.019531 145.78125 C 155.8125 136.285156 179.550781 139.980469 189.59375 153.648438 C 190.761719 155.238281 191.757812 156.960938 192.53125 158.816406 C 192.621094 159.035156 192.691406 159.261719 192.777344 159.480469 C 192.601562 156.988281 192.050781 154.554688 191.070312 152.210938 Z M 191.070312 152.210938 "/><path style=" stroke:none;fill-rule:nonzero;fill:#14bbe2;fill-opacity:1;" d="M 193.875 133.554688 C 188.269531 134.585938 187.433594 135.421875 186.398438 141.03125 C 185.363281 135.421875 184.53125 134.585938 178.921875 133.554688 C 184.53125 132.519531 185.363281 131.683594 186.398438 126.078125 C 187.433594 131.691406 188.269531 132.527344 193.875 133.554688 Z M 193.875 133.554688 "/><g clip-rule="nonzero" clip-path="url(#0a60cbb20d)"><path style=" stroke:none;fill-rule:nonzero;fill:#62c7e3;fill-opacity:1;" d="M 175.234375 116.3125 C 172.445312 117.113281 171.792969 117.765625 170.992188 120.554688 C 170.191406 117.765625 169.539062 117.113281 166.75 116.3125 C 169.539062 115.511719 170.191406 114.863281 170.992188 112.070312 C 171.792969 114.863281 172.445312 115.511719 175.234375 116.3125 Z M 175.234375 116.3125 "/></g><path style=" stroke:none;fill-rule:nonzero;fill:#0071a8;fill-opacity:1;" d="M 186.398438 119.152344 C 185.003906 119.554688 184.679688 119.882812 184.273438 121.277344 C 183.871094 119.882812 183.546875 119.554688 182.152344 119.152344 C 183.546875 118.75 183.871094 118.421875 184.273438 117.027344 C 184.679688 118.421875 185.003906 118.75 186.398438 119.152344 Z M 186.398438 119.152344 "/><g style="fill:#0071a8;fill-opacity:1;"><g transform="translate(160.975555, 186.934589)"><path style="stroke:none" d="M 6.3125 -13.03125 L 6.3125 0 L 1.53125 0 L 1.53125 -21 L 6.3125 -21 L 14.65625 -7.96875 L 14.71875 -7.96875 L 14.71875 -21 L 19.5 -21 L 19.5 0 L 14.71875 0 L 6.359375 -13.03125 Z M 6.3125 -13.03125 "/></g></g><g style="fill:#0071a8;fill-opacity:1;"><g transform="translate(181.990202, 186.934589)"><path style="stroke:none" d="M 9.265625 -21.375 C 10.398438 -21.375 11.507812 -21.207031 12.59375 -20.875 C 13.6875 -20.550781 14.492188 -20.226562 15.015625 -19.90625 L 15.78125 -19.390625 L 13.84375 -15.578125 C 13.695312 -15.679688 13.484375 -15.8125 13.203125 -15.96875 C 12.929688 -16.132812 12.421875 -16.351562 11.671875 -16.625 C 10.929688 -16.894531 10.238281 -17.03125 9.59375 -17.03125 C 8.800781 -17.03125 8.1875 -16.859375 7.75 -16.515625 C 7.3125 -16.179688 7.09375 -15.722656 7.09375 -15.140625 C 7.09375 -14.859375 7.195312 -14.59375 7.40625 -14.34375 C 7.613281 -14.09375 7.960938 -13.828125 8.453125 -13.546875 C 8.941406 -13.273438 9.375 -13.050781 9.75 -12.875 C 10.125 -12.707031 10.703125 -12.453125 11.484375 -12.109375 C 12.835938 -11.535156 13.992188 -10.75 14.953125 -9.75 C 15.910156 -8.757812 16.390625 -7.640625 16.390625 -6.390625 C 16.390625 -5.179688 16.171875 -4.128906 15.734375 -3.234375 C 15.304688 -2.335938 14.710938 -1.632812 13.953125 -1.125 C 13.203125 -0.613281 12.367188 -0.238281 11.453125 0 C 10.535156 0.25 9.539062 0.375 8.46875 0.375 C 7.550781 0.375 6.648438 0.28125 5.765625 0.09375 C 4.890625 -0.0820312 4.15625 -0.3125 3.5625 -0.59375 C 2.96875 -0.875 2.429688 -1.148438 1.953125 -1.421875 C 1.484375 -1.691406 1.140625 -1.921875 0.921875 -2.109375 L 0.578125 -2.390625 L 2.984375 -6.421875 C 3.179688 -6.242188 3.457031 -6.023438 3.8125 -5.765625 C 4.175781 -5.503906 4.8125 -5.148438 5.71875 -4.703125 C 6.625 -4.265625 7.425781 -4.046875 8.125 -4.046875 C 10.144531 -4.046875 11.15625 -4.734375 11.15625 -6.109375 C 11.15625 -6.398438 11.082031 -6.664062 10.9375 -6.90625 C 10.789062 -7.15625 10.535156 -7.398438 10.171875 -7.640625 C 9.804688 -7.890625 9.484375 -8.085938 9.203125 -8.234375 C 8.921875 -8.378906 8.460938 -8.597656 7.828125 -8.890625 C 7.191406 -9.191406 6.722656 -9.421875 6.421875 -9.578125 C 5.140625 -10.203125 4.148438 -10.984375 3.453125 -11.921875 C 2.765625 -12.867188 2.421875 -13.882812 2.421875 -14.96875 C 2.421875 -16.851562 3.113281 -18.390625 4.5 -19.578125 C 5.894531 -20.773438 7.484375 -21.375 9.265625 -21.375 Z M 9.265625 -21.375 "/></g></g><g style="fill:#0071a8;fill-opacity:1;"><g transform="translate(199.086873, 186.934589)"><path style="stroke:none" d="M 17.640625 0 L 14.28125 -11.78125 L 10.921875 0 L 5.59375 0 L -0.375 -21 L 4.9375 -21 L 8.53125 -6.59375 L 8.65625 -6.59375 L 12.46875 -21 L 16.09375 -21 L 19.90625 -6.59375 L 20.03125 -6.59375 L 23.625 -21 L 28.921875 -21 L 22.9375 0 Z M 17.640625 0 "/></g></g><g style="fill:#0071a8;fill-opacity:1;"><g transform="translate(115.549237, 206.329777)"><path style="stroke:none" d="M 7.0625 -3.09375 C 7.007812 -2.039062 6.707031 -1.238281 6.15625 -0.6875 C 5.613281 -0.144531 4.84375 0.125 3.84375 0.125 C 2.78125 0.125 1.96875 -0.21875 1.40625 -0.90625 C 0.851562 -1.601562 0.578125 -2.59375 0.578125 -3.875 L 0.578125 -5.4375 C 0.578125 -6.71875 0.863281 -7.703125 1.4375 -8.390625 C 2.019531 -9.085938 2.828125 -9.4375 3.859375 -9.4375 C 4.878906 -9.4375 5.648438 -9.148438 6.171875 -8.578125 C 6.703125 -8.015625 7.003906 -7.203125 7.078125 -6.140625 L 5.1875 -6.140625 C 5.164062 -6.796875 5.0625 -7.25 4.875 -7.5 C 4.695312 -7.75 4.359375 -7.875 3.859375 -7.875 C 3.359375 -7.875 3.003906 -7.695312 2.796875 -7.34375 C 2.585938 -7 2.476562 -6.421875 2.46875 -5.609375 L 2.46875 -3.859375 C 2.46875 -2.929688 2.566406 -2.296875 2.765625 -1.953125 C 2.972656 -1.609375 3.332031 -1.4375 3.84375 -1.4375 C 4.332031 -1.4375 4.671875 -1.554688 4.859375 -1.796875 C 5.046875 -2.035156 5.148438 -2.46875 5.171875 -3.09375 Z M 7.0625 -3.09375 "/></g></g><g style="fill:#0071a8;fill-opacity:1;"><g transform="translate(125.921841, 206.329777)"><path style="stroke:none" d="M 2.625 -1.5625 L 5.921875 -1.5625 L 5.921875 0 L 0.75 0 L 0.75 -9.3125 L 2.625 -9.3125 Z M 2.625 -1.5625 "/></g></g><g style="fill:#0071a8;fill-opacity:1;"><g transform="translate(135.092838, 206.329777)"><path style="stroke:none" d="M 5.5625 -4.03125 L 2.625 -4.03125 L 2.625 -1.5625 L 6.09375 -1.5625 L 6.09375 0 L 0.75 0 L 0.75 -9.3125 L 6.078125 -9.3125 L 6.078125 -7.75 L 2.625 -7.75 L 2.625 -5.546875 L 5.5625 -5.546875 Z M 5.5625 -4.03125 "/></g></g><g style="fill:#0071a8;fill-opacity:1;"><g transform="translate(144.423629, 206.329777)"><path style="stroke:none" d="M 5.1875 -1.90625 L 2.625 -1.90625 L 2.125 0 L 0.140625 0 L 3.046875 -9.3125 L 4.765625 -9.3125 L 7.703125 0 L 5.6875 0 Z M 3.03125 -3.46875 L 4.78125 -3.46875 L 3.90625 -6.796875 Z M 3.03125 -3.46875 "/></g></g><g style="fill:#0071a8;fill-opacity:1;"><g transform="translate(155.147772, 206.329777)"><path style="stroke:none" d="M 7.25 0 L 5.375 0 L 2.625 -6.109375 L 2.625 0 L 0.75 0 L 0.75 -9.3125 L 2.625 -9.3125 L 5.390625 -3.203125 L 5.390625 -9.3125 L 7.25 -9.3125 Z M 7.25 0 "/></g></g><g style="fill:#0071a8;fill-opacity:1;"><g transform="translate(166.070047, 206.329777)"><path style="stroke:none" d="M 2.703125 0 L 0.828125 0 L 0.828125 -9.3125 L 2.703125 -9.3125 Z M 2.703125 0 "/></g></g><g style="fill:#0071a8;fill-opacity:1;"><g transform="translate(172.518254, 206.329777)"><path style="stroke:none" d="M 7.25 0 L 5.375 0 L 2.625 -6.109375 L 2.625 0 L 0.75 0 L 0.75 -9.3125 L 2.625 -9.3125 L 5.390625 -3.203125 L 5.390625 -9.3125 L 7.25 -9.3125 Z M 7.25 0 "/></g></g><g style="fill:#0071a8;fill-opacity:1;"><g transform="translate(183.440529, 206.329777)"><path style="stroke:none" d="M 7.078125 -1.0625 C 6.710938 -0.664062 6.265625 -0.367188 5.734375 -0.171875 C 5.210938 0.0234375 4.640625 0.125 4.015625 0.125 C 2.941406 0.125 2.109375 -0.203125 1.515625 -0.859375 C 0.929688 -1.523438 0.628906 -2.492188 0.609375 -3.765625 L 0.609375 -5.4375 C 0.609375 -6.71875 0.882812 -7.703125 1.4375 -8.390625 C 2 -9.085938 2.820312 -9.4375 3.90625 -9.4375 C 4.914062 -9.4375 5.675781 -9.1875 6.1875 -8.6875 C 6.695312 -8.1875 6.992188 -7.40625 7.078125 -6.34375 L 5.25 -6.34375 C 5.195312 -6.9375 5.070312 -7.335938 4.875 -7.546875 C 4.675781 -7.765625 4.367188 -7.875 3.953125 -7.875 C 3.453125 -7.875 3.082031 -7.6875 2.84375 -7.3125 C 2.613281 -6.945312 2.5 -6.359375 2.5 -5.546875 L 2.5 -3.859375 C 2.5 -3.015625 2.625 -2.398438 2.875 -2.015625 C 3.125 -1.628906 3.539062 -1.4375 4.125 -1.4375 C 4.5 -1.4375 4.800781 -1.507812 5.03125 -1.65625 L 5.1875 -1.765625 L 5.1875 -3.484375 L 3.875 -3.484375 L 3.875 -4.890625 L 7.078125 -4.890625 Z M 7.078125 -1.0625 "/></g></g><g style="fill:#0071a8;fill-opacity:1;"><g transform="translate(194.004878, 206.329777)"><path style="stroke:none" d=""/></g></g><g style="fill:#0071a8;fill-opacity:1;"><g transform="translate(199.928981, 206.329777)"><path style="stroke:none" d="M 7.0625 -3.09375 C 7.007812 -2.039062 6.707031 -1.238281 6.15625 -0.6875 C 5.613281 -0.144531 4.84375 0.125 3.84375 0.125 C 2.78125 0.125 1.96875 -0.21875 1.40625 -0.90625 C 0.851562 -1.601562 0.578125 -2.59375 0.578125 -3.875 L 0.578125 -5.4375 C 0.578125 -6.71875 0.863281 -7.703125 1.4375 -8.390625 C 2.019531 -9.085938 2.828125 -9.4375 3.859375 -9.4375 C 4.878906 -9.4375 5.648438 -9.148438 6.171875 -8.578125 C 6.703125 -8.015625 7.003906 -7.203125 7.078125 -6.140625 L 5.1875 -6.140625 C 5.164062 -6.796875 5.0625 -7.25 4.875 -7.5 C 4.695312 -7.75 4.359375 -7.875 3.859375 -7.875 C 3.359375 -7.875 3.003906 -7.695312 2.796875 -7.34375 C 2.585938 -7 2.476562 -6.421875 2.46875 -5.609375 L 2.46875 -3.859375 C 2.46875 -2.929688 2.566406 -2.296875 2.765625 -1.953125 C 2.972656 -1.609375 3.332031 -1.4375 3.84375 -1.4375 C 4.332031 -1.4375 4.671875 -1.554688 4.859375 -1.796875 C 5.046875 -2.035156 5.148438 -2.46875 5.171875 -3.09375 Z M 7.0625 -3.09375 "/></g></g><g style="fill:#0071a8;fill-opacity:1;"><g transform="translate(210.301585, 206.329777)"><path style="stroke:none" d="M 7.296875 -3.8125 C 7.296875 -2.5625 7 -1.59375 6.40625 -0.90625 C 5.820312 -0.21875 5.003906 0.125 3.953125 0.125 C 2.910156 0.125 2.085938 -0.210938 1.484375 -0.890625 C 0.890625 -1.578125 0.59375 -2.535156 0.59375 -3.765625 L 0.59375 -5.359375 C 0.59375 -6.640625 0.882812 -7.640625 1.46875 -8.359375 C 2.0625 -9.078125 2.882812 -9.4375 3.9375 -9.4375 C 4.976562 -9.4375 5.796875 -9.082031 6.390625 -8.375 C 6.984375 -7.675781 7.285156 -6.6875 7.296875 -5.40625 Z M 5.421875 -5.375 C 5.421875 -6.21875 5.300781 -6.84375 5.0625 -7.25 C 4.820312 -7.65625 4.445312 -7.859375 3.9375 -7.859375 C 3.445312 -7.859375 3.082031 -7.660156 2.84375 -7.265625 C 2.601562 -6.878906 2.476562 -6.28125 2.46875 -5.46875 L 2.46875 -3.8125 C 2.46875 -3 2.585938 -2.398438 2.828125 -2.015625 C 3.078125 -1.628906 3.453125 -1.4375 3.953125 -1.4375 C 4.441406 -1.4375 4.804688 -1.625 5.046875 -2 C 5.285156 -2.375 5.410156 -2.960938 5.421875 -3.765625 Z M 5.421875 -5.375 "/></g></g><g style="fill:#0071a8;fill-opacity:1;"><g transform="translate(221.108812, 206.329777)"><path style="stroke:none" d="M 3.203125 -9.3125 L 4.96875 -2.578125 L 6.71875 -9.3125 L 9.171875 -9.3125 L 9.171875 0 L 7.28125 0 L 7.28125 -2.515625 L 7.453125 -6.40625 L 5.59375 0 L 4.3125 0 L 2.453125 -6.40625 L 2.625 -2.515625 L 2.625 0 L 0.75 0 L 0.75 -9.3125 Z M 3.203125 -9.3125 "/></g></g><g style="fill:#0071a8;fill-opacity:1;"><g transform="translate(233.942159, 206.329777)"><path style="stroke:none" d="M 2.625 -3.28125 L 2.625 0 L 0.75 0 L 0.75 -9.3125 L 3.921875 -9.3125 C 4.835938 -9.3125 5.566406 -9.023438 6.109375 -8.453125 C 6.660156 -7.878906 6.9375 -7.132812 6.9375 -6.21875 C 6.9375 -5.3125 6.664062 -4.59375 6.125 -4.0625 C 5.582031 -3.539062 4.832031 -3.28125 3.875 -3.28125 Z M 2.625 -4.84375 L 3.921875 -4.84375 C 4.273438 -4.84375 4.550781 -4.957031 4.75 -5.1875 C 4.945312 -5.425781 5.046875 -5.769531 5.046875 -6.21875 C 5.046875 -6.675781 4.941406 -7.039062 4.734375 -7.3125 C 4.535156 -7.59375 4.269531 -7.738281 3.9375 -7.75 L 2.625 -7.75 Z M 2.625 -4.84375 "/></g></g><g style="fill:#0071a8;fill-opacity:1;"><g transform="translate(244.295593, 206.329777)"><path style="stroke:none" d="M 5.1875 -1.90625 L 2.625 -1.90625 L 2.125 0 L 0.140625 0 L 3.046875 -9.3125 L 4.765625 -9.3125 L 7.703125 0 L 5.6875 0 Z M 3.03125 -3.46875 L 4.78125 -3.46875 L 3.90625 -6.796875 Z M 3.03125 -3.46875 "/></g></g><g style="fill:#0071a8;fill-opacity:1;"><g transform="translate(255.019737, 206.329777)"><path style="stroke:none" d="M 7.25 0 L 5.375 0 L 2.625 -6.109375 L 2.625 0 L 0.75 0 L 0.75 -9.3125 L 2.625 -9.3125 L 5.390625 -3.203125 L 5.390625 -9.3125 L 7.25 -9.3125 Z M 7.25 0 "/></g></g><g style="fill:#0071a8;fill-opacity:1;"><g transform="translate(265.942012, 206.329777)"><path style="stroke:none" d="M 3.5625 -5.125 L 4.953125 -9.3125 L 7 -9.3125 L 4.5 -3.375 L 4.5 0 L 2.609375 0 L 2.609375 -3.375 L 0.109375 -9.3125 L 2.140625 -9.3125 Z M 3.5625 -5.125 "/></g></g></g></svg>